# xmcd CD database file
#
# Track frame offsets:
#	150
#	18978
#	37571
#	62319
#	81500
#	94259
#	120159
#	139511
#	157751
#	181747
#	201405
#	220971
#	253425
#	280226
#	302737
#
# Disc length: 4292 seconds
#
# Revision: 0
# Processed by: cddbd v1.5.2PL0 Copyright (c) Steve Scherf et al.
# Submitted via: CDex 1.70beta2
#
DISCID=c210c20f
DTITLE=Brentwood Jazz Quartet - 30 Smooth Gospel Jazz Greats Disc 1
DYEAR=2007
DGENRE=Jazz
TTITLE0=Mary did you know
TTITLE1=Come thou fount of every blessing
TTITLE2=Awesome God
TTITLE3=Glory to His Name
TTITLE4=I want to be where You are
TTITLE5=People get ready
TTITLE6=Lord I want to be a Christian
TTITLE7=At the Cross
TTITLE8=Oh happy day
TTITLE9=Swing low sweet chariot
TTITLE10=Do Lord
TTITLE11=A mighty fortress
TTITLE12=Sweet affirmation
TTITLE13=Precious Lord take my hand
TTITLE14=Un lugar celestial
EXTD=YEAR: 2007
EXTT0=
EXTT1=
EXTT2=
EXTT3=
EXTT4=
EXTT5=
EXTT6=
EXTT7=
EXTT8=
EXTT9=
EXTT10=
EXTT11=
EXTT12=
EXTT13=
EXTT14=
PLAYORDER=
